<svg xmlns="http://www.w3.org/2000/svg" width="960" height="420" viewBox="0 0 960 420">
  <rect width="100%" height="100%" fill="#0f1115"/>
  <rect x="20" y="20" width="920" height="380" rx="14" fill="#151922" stroke="#2a3140"/>
  <text x="84" y="38" fill="#e7edf5" font-family="Iosevka Web, IBM Plex Sans, Segoe UI, sans-serif" font-size="22">Message Chain Sends By Step</text>
  <text x="84" y="58" fill="#a9b7c8" font-family="Iosevka Web, IBM Plex Sans, Segoe UI, sans-serif" font-size="13">24-step Runtime trace of the message-chain example.</text>

  <line x1="84" y1="56" x2="84" y2="366" stroke="#a9b7c8" stroke-width="1.5"/>
  <line x1="84" y1="366" x2="936" y2="366" stroke="#a9b7c8" stroke-width="1.5"/>
  <line x1="84" y1="366.0" x2="936" y2="366.0" stroke="#2a3140" stroke-width="1"/>
  <line x1="84" y1="340.2" x2="936" y2="340.2" stroke="#2a3140" stroke-width="1"/>
  <line x1="84" y1="314.3" x2="936" y2="314.3" stroke="#2a3140" stroke-width="1"/>
  <line x1="84" y1="288.5" x2="936" y2="288.5" stroke="#2a3140" stroke-width="1"/>
  <line x1="84" y1="262.7" x2="936" y2="262.7" stroke="#2a3140" stroke-width="1"/>
  <line x1="84" y1="236.8" x2="936" y2="236.8" stroke="#2a3140" stroke-width="1"/>
  <line x1="84" y1="211.0" x2="936" y2="211.0" stroke="#2a3140" stroke-width="1"/>
  <line x1="84" y1="185.2" x2="936" y2="185.2" stroke="#2a3140" stroke-width="1"/>
  <line x1="84" y1="159.3" x2="936" y2="159.3" stroke="#2a3140" stroke-width="1"/>
  <line x1="84" y1="133.5" x2="936" y2="133.5" stroke="#2a3140" stroke-width="1"/>
  <line x1="84" y1="107.7" x2="936" y2="107.7" stroke="#2a3140" stroke-width="1"/>
  <line x1="84" y1="81.8" x2="936" y2="81.8" stroke="#2a3140" stroke-width="1"/>
  <line x1="84" y1="56.0" x2="936" y2="56.0" stroke="#2a3140" stroke-width="1"/>
  <line x1="84.0" y1="56" x2="84.0" y2="366" stroke="#2a3140" stroke-width="1"/>
  <line x1="439.0" y1="56" x2="439.0" y2="366" stroke="#2a3140" stroke-width="1"/>
  <line x1="794.0" y1="56" x2="794.0" y2="366" stroke="#2a3140" stroke-width="1"/>
  <line x1="936.0" y1="56" x2="936.0" y2="366" stroke="#2a3140" stroke-width="1"/>
  <text x="66" y="372.0" text-anchor="end" fill="#a9b7c8" font-family="Iosevka Web, IBM Plex Sans, Segoe UI, sans-serif" font-size="13">0</text>
  <text x="66" y="320.3" text-anchor="end" fill="#a9b7c8" font-family="Iosevka Web, IBM Plex Sans, Segoe UI, sans-serif" font-size="13">2</text>
  <text x="66" y="268.7" text-anchor="end" fill="#a9b7c8" font-family="Iosevka Web, IBM Plex Sans, Segoe UI, sans-serif" font-size="13">4</text>
  <text x="66" y="217.0" text-anchor="end" fill="#a9b7c8" font-family="Iosevka Web, IBM Plex Sans, Segoe UI, sans-serif" font-size="13">6</text>
  <text x="66" y="165.3" text-anchor="end" fill="#a9b7c8" font-family="Iosevka Web, IBM Plex Sans, Segoe UI, sans-serif" font-size="13">8</text>
  <text x="66" y="113.7" text-anchor="end" fill="#a9b7c8" font-family="Iosevka Web, IBM Plex Sans, Segoe UI, sans-serif" font-size="13">10</text>
  <text x="66" y="62.0" text-anchor="end" fill="#a9b7c8" font-family="Iosevka Web, IBM Plex Sans, Segoe UI, sans-serif" font-size="13">12</text>
  <text x="84.0" y="394" text-anchor="middle" fill="#a9b7c8" font-family="Iosevka Web, IBM Plex Sans, Segoe UI, sans-serif" font-size="13">0</text>
  <text x="439.0" y="394" text-anchor="middle" fill="#a9b7c8" font-family="Iosevka Web, IBM Plex Sans, Segoe UI, sans-serif" font-size="13">10</text>
  <text x="794.0" y="394" text-anchor="middle" fill="#a9b7c8" font-family="Iosevka Web, IBM Plex Sans, Segoe UI, sans-serif" font-size="13">20</text>
  <text x="936.0" y="394" text-anchor="middle" fill="#a9b7c8" font-family="Iosevka Web, IBM Plex Sans, Segoe UI, sans-serif" font-size="13">24</text>

  <text x="510.0" y="400" text-anchor="middle" fill="#a9b7c8" font-family="Iosevka Web, IBM Plex Sans, Segoe UI, sans-serif" font-size="13">applied runtime step</text>
  <text x="26" y="211.0" transform="rotate(-90 26 211.0)" text-anchor="middle" fill="#a9b7c8" font-family="Iosevka Web, IBM Plex Sans, Segoe UI, sans-serif" font-size="13">cumulative sends</text>

  <polyline fill="none" stroke="#8bc3ff" stroke-width="3" points="84.0,366.0 119.5,340.2 190.5,314.3 261.5,288.5 332.5,262.7 403.5,236.8 474.5,211.0 545.5,185.2 616.5,159.3 687.5,133.5 758.5,107.7 829.5,81.8 900.5,56.0"/>
  <circle cx="84.0" cy="366.0" r="3.2" fill="#8bc3ff"/>
  <circle cx="119.5" cy="340.2" r="3.2" fill="#8bc3ff"/>
  <circle cx="190.5" cy="314.3" r="3.2" fill="#8bc3ff"/>
  <circle cx="261.5" cy="288.5" r="3.2" fill="#8bc3ff"/>
  <circle cx="332.5" cy="262.7" r="3.2" fill="#8bc3ff"/>
  <circle cx="403.5" cy="236.8" r="3.2" fill="#8bc3ff"/>
  <circle cx="474.5" cy="211.0" r="3.2" fill="#8bc3ff"/>
  <circle cx="545.5" cy="185.2" r="3.2" fill="#8bc3ff"/>
  <circle cx="616.5" cy="159.3" r="3.2" fill="#8bc3ff"/>
  <circle cx="687.5" cy="133.5" r="3.2" fill="#8bc3ff"/>
  <circle cx="758.5" cy="107.7" r="3.2" fill="#8bc3ff"/>
  <circle cx="829.5" cy="81.8" r="3.2" fill="#8bc3ff"/>
  <circle cx="900.5" cy="56.0" r="3.2" fill="#8bc3ff"/>

  <line x1="700" y1="78" x2="736" y2="78" stroke="#8bc3ff" stroke-width="3"/>
  <text x="746" y="82" fill="#e7edf5" font-family="Iosevka Web, IBM Plex Sans, Segoe UI, sans-serif" font-size="13">sends</text>
</svg>
