<svg xmlns="http://www.w3.org/2000/svg" width="960" height="420" viewBox="0 0 960 420">
  <rect width="100%" height="100%" fill="#0f1115"/>
  <rect x="20" y="20" width="920" height="380" rx="14" fill="#151922" stroke="#2a3140"/>
  <text x="84" y="38" fill="#e7edf5" font-family="Iosevka Web, IBM Plex Sans, Segoe UI, sans-serif" font-size="22">Message Counts By Step</text>
  <text x="84" y="58" fill="#a9b7c8" font-family="Iosevka Web, IBM Plex Sans, Segoe UI, sans-serif" font-size="13">Same Client → Relay → Server example as the state and sequence diagrams.</text>

  <line x1="84" y1="56" x2="84" y2="366" stroke="#a9b7c8" stroke-width="1.5"/>
  <line x1="84" y1="366" x2="936" y2="366" stroke="#a9b7c8" stroke-width="1.5"/>

  <line x1="84" y1="211.0" x2="936" y2="211.0" stroke="#2a3140" stroke-width="1"/>
  <line x1="368.0" y1="56" x2="368.0" y2="366" stroke="#2a3140" stroke-width="1"/>
  <line x1="652.0" y1="56" x2="652.0" y2="366" stroke="#2a3140" stroke-width="1"/>

  <text x="66" y="372" text-anchor="end" fill="#a9b7c8" font-family="Iosevka Web, IBM Plex Sans, Segoe UI, sans-serif" font-size="13">0</text>
  <text x="66" y="217.0" text-anchor="end" fill="#a9b7c8" font-family="Iosevka Web, IBM Plex Sans, Segoe UI, sans-serif" font-size="13">1</text>
  <text x="66" y="62" text-anchor="end" fill="#a9b7c8" font-family="Iosevka Web, IBM Plex Sans, Segoe UI, sans-serif" font-size="13">2</text>

  <text x="84" y="394" text-anchor="middle" fill="#a9b7c8" font-family="Iosevka Web, IBM Plex Sans, Segoe UI, sans-serif" font-size="13">1</text>
  <text x="368.0" y="394" text-anchor="middle" fill="#a9b7c8" font-family="Iosevka Web, IBM Plex Sans, Segoe UI, sans-serif" font-size="13">2</text>
  <text x="652.0" y="394" text-anchor="middle" fill="#a9b7c8" font-family="Iosevka Web, IBM Plex Sans, Segoe UI, sans-serif" font-size="13">3</text>

  <text x="510.0" y="400" text-anchor="middle" fill="#a9b7c8" font-family="Iosevka Web, IBM Plex Sans, Segoe UI, sans-serif" font-size="13">scheduler step</text>
  <text x="26" y="211.0" transform="rotate(-90 26 211.0)" text-anchor="middle" fill="#a9b7c8" font-family="Iosevka Web, IBM Plex Sans, Segoe UI, sans-serif" font-size="13">cumulative messages</text>

  <polyline fill="none" stroke="#8bc3ff" stroke-width="3" points="368.0,211.0 652.0,56.0 936.0,56.0"/>
  <polyline fill="none" stroke="#79d2a6" stroke-width="3" points="368.0,366.0 652.0,211.0 936.0,56.0"/>

  <circle cx="368.0" cy="211.0" r="4" fill="#8bc3ff"/>
  <circle cx="652.0" cy="56.0" r="4" fill="#8bc3ff"/>
  <circle cx="936.0" cy="56.0" r="4" fill="#8bc3ff"/>

  <circle cx="368.0" cy="366.0" r="4" fill="#79d2a6"/>
  <circle cx="652.0" cy="211.0" r="4" fill="#79d2a6"/>
  <circle cx="936.0" cy="56.0" r="4" fill="#79d2a6"/>

  <line x1="740" y1="78" x2="776" y2="78" stroke="#8bc3ff" stroke-width="3"/>
  <text x="786" y="82" fill="#e7edf5" font-family="Iosevka Web, IBM Plex Sans, Segoe UI, sans-serif" font-size="13">sends</text>
  <line x1="740" y1="102" x2="776" y2="102" stroke="#79d2a6" stroke-width="3"/>
  <text x="786" y="106" fill="#e7edf5" font-family="Iosevka Web, IBM Plex Sans, Segoe UI, sans-serif" font-size="13">receives</text>
</svg>
