<svg xmlns="http://www.w3.org/2000/svg" width="960" height="420" viewBox="0 0 960 420">
  <rect width="100%" height="100%" fill="#0f1115"/>
  <rect x="20" y="20" width="920" height="380" rx="14" fill="#151922" stroke="#2a3140"/>
  <text x="84" y="38" fill="#e7edf5" font-family="Iosevka Web, IBM Plex Sans, Segoe UI, sans-serif" font-size="22">Outstanding Messages By Step</text>
  <text x="84" y="58" fill="#a9b7c8" font-family="Iosevka Web, IBM Plex Sans, Segoe UI, sans-serif" font-size="13">100-step Runtime trace of the M/M/1/5-style queue example.</text>

  <line x1="84" y1="56" x2="84" y2="366" stroke="#a9b7c8" stroke-width="1.5"/>
  <line x1="84" y1="366" x2="936" y2="366" stroke="#a9b7c8" stroke-width="1.5"/>
  <line x1="84" y1="366.0" x2="936" y2="366.0" stroke="#2a3140" stroke-width="1"/>
  <line x1="84" y1="56.0" x2="936" y2="56.0" stroke="#2a3140" stroke-width="1"/>
  <line x1="169.2" y1="56" x2="169.2" y2="366" stroke="#2a3140" stroke-width="1"/>
  <line x1="254.4" y1="56" x2="254.4" y2="366" stroke="#2a3140" stroke-width="1"/>
  <line x1="339.6" y1="56" x2="339.6" y2="366" stroke="#2a3140" stroke-width="1"/>
  <line x1="424.8" y1="56" x2="424.8" y2="366" stroke="#2a3140" stroke-width="1"/>
  <line x1="510.0" y1="56" x2="510.0" y2="366" stroke="#2a3140" stroke-width="1"/>
  <line x1="595.2" y1="56" x2="595.2" y2="366" stroke="#2a3140" stroke-width="1"/>
  <line x1="680.4" y1="56" x2="680.4" y2="366" stroke="#2a3140" stroke-width="1"/>
  <line x1="765.6" y1="56" x2="765.6" y2="366" stroke="#2a3140" stroke-width="1"/>
  <line x1="850.8" y1="56" x2="850.8" y2="366" stroke="#2a3140" stroke-width="1"/>
  <line x1="936.0" y1="56" x2="936.0" y2="366" stroke="#2a3140" stroke-width="1"/>
  <text x="66" y="372.0" text-anchor="end" fill="#a9b7c8" font-family="Iosevka Web, IBM Plex Sans, Segoe UI, sans-serif" font-size="13">0</text>
  <text x="66" y="62.0" text-anchor="end" fill="#a9b7c8" font-family="Iosevka Web, IBM Plex Sans, Segoe UI, sans-serif" font-size="13">1</text>
  <text x="169.2" y="394" text-anchor="middle" fill="#a9b7c8" font-family="Iosevka Web, IBM Plex Sans, Segoe UI, sans-serif" font-size="13">10</text>
  <text x="254.4" y="394" text-anchor="middle" fill="#a9b7c8" font-family="Iosevka Web, IBM Plex Sans, Segoe UI, sans-serif" font-size="13">20</text>
  <text x="339.6" y="394" text-anchor="middle" fill="#a9b7c8" font-family="Iosevka Web, IBM Plex Sans, Segoe UI, sans-serif" font-size="13">30</text>
  <text x="424.8" y="394" text-anchor="middle" fill="#a9b7c8" font-family="Iosevka Web, IBM Plex Sans, Segoe UI, sans-serif" font-size="13">40</text>
  <text x="510.0" y="394" text-anchor="middle" fill="#a9b7c8" font-family="Iosevka Web, IBM Plex Sans, Segoe UI, sans-serif" font-size="13">50</text>
  <text x="595.2" y="394" text-anchor="middle" fill="#a9b7c8" font-family="Iosevka Web, IBM Plex Sans, Segoe UI, sans-serif" font-size="13">60</text>
  <text x="680.4" y="394" text-anchor="middle" fill="#a9b7c8" font-family="Iosevka Web, IBM Plex Sans, Segoe UI, sans-serif" font-size="13">70</text>
  <text x="765.6" y="394" text-anchor="middle" fill="#a9b7c8" font-family="Iosevka Web, IBM Plex Sans, Segoe UI, sans-serif" font-size="13">80</text>
  <text x="850.8" y="394" text-anchor="middle" fill="#a9b7c8" font-family="Iosevka Web, IBM Plex Sans, Segoe UI, sans-serif" font-size="13">90</text>
  <text x="936.0" y="394" text-anchor="middle" fill="#a9b7c8" font-family="Iosevka Web, IBM Plex Sans, Segoe UI, sans-serif" font-size="13">100</text>

  <text x="510.0" y="400" text-anchor="middle" fill="#a9b7c8" font-family="Iosevka Web, IBM Plex Sans, Segoe UI, sans-serif" font-size="13">applied runtime step</text>
  <text x="26" y="211.0" transform="rotate(-90 26 211.0)" text-anchor="middle" fill="#a9b7c8" font-family="Iosevka Web, IBM Plex Sans, Segoe UI, sans-serif" font-size="13">sent - received</text>

  <polyline fill="none" stroke="#8bc3ff" stroke-width="3" points="92.5,56.0 101.0,366.0 109.6,366.0 118.1,366.0 126.6,56.0 135.1,366.0 143.6,366.0 152.2,366.0 160.7,366.0 169.2,366.0 177.7,366.0 186.2,366.0 194.8,366.0 203.3,366.0 211.8,56.0 220.3,366.0 228.8,56.0 237.4,366.0 245.9,56.0 254.4,366.0 262.9,56.0 271.4,366.0 280.0,366.0 288.5,366.0 297.0,366.0 305.5,366.0 314.0,56.0 322.6,366.0 331.1,56.0 339.6,366.0 348.1,56.0 356.6,366.0 365.2,56.0 373.7,366.0 382.2,366.0 390.7,366.0 399.2,366.0 407.8,366.0 416.3,56.0 424.8,366.0 433.3,56.0 441.8,366.0 450.4,366.0 458.9,366.0 467.4,366.0 475.9,366.0 484.4,56.0 493.0,366.0 501.5,56.0 510.0,366.0 518.5,366.0 527.0,366.0 535.6,366.0 544.1,366.0 552.6,56.0 561.1,366.0 569.6,56.0 578.2,366.0 586.7,56.0 595.2,366.0 603.7,56.0 612.2,366.0 620.8,56.0 629.3,366.0 637.8,56.0 646.3,366.0 654.8,366.0 663.4,366.0 671.9,366.0 680.4,366.0 688.9,56.0 697.4,366.0 706.0,366.0 714.5,366.0 723.0,56.0 731.5,366.0 740.0,366.0 748.6,366.0 757.1,56.0 765.6,366.0 774.1,366.0 782.6,366.0 791.2,56.0 799.7,366.0 808.2,56.0 816.7,366.0 825.2,56.0 833.8,366.0 842.3,56.0 850.8,366.0 859.3,366.0 867.8,366.0 876.4,56.0 884.9,366.0 893.4,56.0 901.9,366.0 910.4,56.0 919.0,366.0 927.5,56.0 936.0,366.0"/>
  <circle cx="92.5" cy="56.0" r="3.2" fill="#8bc3ff"/>
  <circle cx="101.0" cy="366.0" r="3.2" fill="#8bc3ff"/>
  <circle cx="109.6" cy="366.0" r="3.2" fill="#8bc3ff"/>
  <circle cx="118.1" cy="366.0" r="3.2" fill="#8bc3ff"/>
  <circle cx="126.6" cy="56.0" r="3.2" fill="#8bc3ff"/>
  <circle cx="135.1" cy="366.0" r="3.2" fill="#8bc3ff"/>
  <circle cx="143.6" cy="366.0" r="3.2" fill="#8bc3ff"/>
  <circle cx="152.2" cy="366.0" r="3.2" fill="#8bc3ff"/>
  <circle cx="160.7" cy="366.0" r="3.2" fill="#8bc3ff"/>
  <circle cx="169.2" cy="366.0" r="3.2" fill="#8bc3ff"/>
  <circle cx="177.7" cy="366.0" r="3.2" fill="#8bc3ff"/>
  <circle cx="186.2" cy="366.0" r="3.2" fill="#8bc3ff"/>
  <circle cx="194.8" cy="366.0" r="3.2" fill="#8bc3ff"/>
  <circle cx="203.3" cy="366.0" r="3.2" fill="#8bc3ff"/>
  <circle cx="211.8" cy="56.0" r="3.2" fill="#8bc3ff"/>
  <circle cx="220.3" cy="366.0" r="3.2" fill="#8bc3ff"/>
  <circle cx="228.8" cy="56.0" r="3.2" fill="#8bc3ff"/>
  <circle cx="237.4" cy="366.0" r="3.2" fill="#8bc3ff"/>
  <circle cx="245.9" cy="56.0" r="3.2" fill="#8bc3ff"/>
  <circle cx="254.4" cy="366.0" r="3.2" fill="#8bc3ff"/>
  <circle cx="262.9" cy="56.0" r="3.2" fill="#8bc3ff"/>
  <circle cx="271.4" cy="366.0" r="3.2" fill="#8bc3ff"/>
  <circle cx="280.0" cy="366.0" r="3.2" fill="#8bc3ff"/>
  <circle cx="288.5" cy="366.0" r="3.2" fill="#8bc3ff"/>
  <circle cx="297.0" cy="366.0" r="3.2" fill="#8bc3ff"/>
  <circle cx="305.5" cy="366.0" r="3.2" fill="#8bc3ff"/>
  <circle cx="314.0" cy="56.0" r="3.2" fill="#8bc3ff"/>
  <circle cx="322.6" cy="366.0" r="3.2" fill="#8bc3ff"/>
  <circle cx="331.1" cy="56.0" r="3.2" fill="#8bc3ff"/>
  <circle cx="339.6" cy="366.0" r="3.2" fill="#8bc3ff"/>
  <circle cx="348.1" cy="56.0" r="3.2" fill="#8bc3ff"/>
  <circle cx="356.6" cy="366.0" r="3.2" fill="#8bc3ff"/>
  <circle cx="365.2" cy="56.0" r="3.2" fill="#8bc3ff"/>
  <circle cx="373.7" cy="366.0" r="3.2" fill="#8bc3ff"/>
  <circle cx="382.2" cy="366.0" r="3.2" fill="#8bc3ff"/>
  <circle cx="390.7" cy="366.0" r="3.2" fill="#8bc3ff"/>
  <circle cx="399.2" cy="366.0" r="3.2" fill="#8bc3ff"/>
  <circle cx="407.8" cy="366.0" r="3.2" fill="#8bc3ff"/>
  <circle cx="416.3" cy="56.0" r="3.2" fill="#8bc3ff"/>
  <circle cx="424.8" cy="366.0" r="3.2" fill="#8bc3ff"/>
  <circle cx="433.3" cy="56.0" r="3.2" fill="#8bc3ff"/>
  <circle cx="441.8" cy="366.0" r="3.2" fill="#8bc3ff"/>
  <circle cx="450.4" cy="366.0" r="3.2" fill="#8bc3ff"/>
  <circle cx="458.9" cy="366.0" r="3.2" fill="#8bc3ff"/>
  <circle cx="467.4" cy="366.0" r="3.2" fill="#8bc3ff"/>
  <circle cx="475.9" cy="366.0" r="3.2" fill="#8bc3ff"/>
  <circle cx="484.4" cy="56.0" r="3.2" fill="#8bc3ff"/>
  <circle cx="493.0" cy="366.0" r="3.2" fill="#8bc3ff"/>
  <circle cx="501.5" cy="56.0" r="3.2" fill="#8bc3ff"/>
  <circle cx="510.0" cy="366.0" r="3.2" fill="#8bc3ff"/>
  <circle cx="518.5" cy="366.0" r="3.2" fill="#8bc3ff"/>
  <circle cx="527.0" cy="366.0" r="3.2" fill="#8bc3ff"/>
  <circle cx="535.6" cy="366.0" r="3.2" fill="#8bc3ff"/>
  <circle cx="544.1" cy="366.0" r="3.2" fill="#8bc3ff"/>
  <circle cx="552.6" cy="56.0" r="3.2" fill="#8bc3ff"/>
  <circle cx="561.1" cy="366.0" r="3.2" fill="#8bc3ff"/>
  <circle cx="569.6" cy="56.0" r="3.2" fill="#8bc3ff"/>
  <circle cx="578.2" cy="366.0" r="3.2" fill="#8bc3ff"/>
  <circle cx="586.7" cy="56.0" r="3.2" fill="#8bc3ff"/>
  <circle cx="595.2" cy="366.0" r="3.2" fill="#8bc3ff"/>
  <circle cx="603.7" cy="56.0" r="3.2" fill="#8bc3ff"/>
  <circle cx="612.2" cy="366.0" r="3.2" fill="#8bc3ff"/>
  <circle cx="620.8" cy="56.0" r="3.2" fill="#8bc3ff"/>
  <circle cx="629.3" cy="366.0" r="3.2" fill="#8bc3ff"/>
  <circle cx="637.8" cy="56.0" r="3.2" fill="#8bc3ff"/>
  <circle cx="646.3" cy="366.0" r="3.2" fill="#8bc3ff"/>
  <circle cx="654.8" cy="366.0" r="3.2" fill="#8bc3ff"/>
  <circle cx="663.4" cy="366.0" r="3.2" fill="#8bc3ff"/>
  <circle cx="671.9" cy="366.0" r="3.2" fill="#8bc3ff"/>
  <circle cx="680.4" cy="366.0" r="3.2" fill="#8bc3ff"/>
  <circle cx="688.9" cy="56.0" r="3.2" fill="#8bc3ff"/>
  <circle cx="697.4" cy="366.0" r="3.2" fill="#8bc3ff"/>
  <circle cx="706.0" cy="366.0" r="3.2" fill="#8bc3ff"/>
  <circle cx="714.5" cy="366.0" r="3.2" fill="#8bc3ff"/>
  <circle cx="723.0" cy="56.0" r="3.2" fill="#8bc3ff"/>
  <circle cx="731.5" cy="366.0" r="3.2" fill="#8bc3ff"/>
  <circle cx="740.0" cy="366.0" r="3.2" fill="#8bc3ff"/>
  <circle cx="748.6" cy="366.0" r="3.2" fill="#8bc3ff"/>
  <circle cx="757.1" cy="56.0" r="3.2" fill="#8bc3ff"/>
  <circle cx="765.6" cy="366.0" r="3.2" fill="#8bc3ff"/>
  <circle cx="774.1" cy="366.0" r="3.2" fill="#8bc3ff"/>
  <circle cx="782.6" cy="366.0" r="3.2" fill="#8bc3ff"/>
  <circle cx="791.2" cy="56.0" r="3.2" fill="#8bc3ff"/>
  <circle cx="799.7" cy="366.0" r="3.2" fill="#8bc3ff"/>
  <circle cx="808.2" cy="56.0" r="3.2" fill="#8bc3ff"/>
  <circle cx="816.7" cy="366.0" r="3.2" fill="#8bc3ff"/>
  <circle cx="825.2" cy="56.0" r="3.2" fill="#8bc3ff"/>
  <circle cx="833.8" cy="366.0" r="3.2" fill="#8bc3ff"/>
  <circle cx="842.3" cy="56.0" r="3.2" fill="#8bc3ff"/>
  <circle cx="850.8" cy="366.0" r="3.2" fill="#8bc3ff"/>
  <circle cx="859.3" cy="366.0" r="3.2" fill="#8bc3ff"/>
  <circle cx="867.8" cy="366.0" r="3.2" fill="#8bc3ff"/>
  <circle cx="876.4" cy="56.0" r="3.2" fill="#8bc3ff"/>
  <circle cx="884.9" cy="366.0" r="3.2" fill="#8bc3ff"/>
  <circle cx="893.4" cy="56.0" r="3.2" fill="#8bc3ff"/>
  <circle cx="901.9" cy="366.0" r="3.2" fill="#8bc3ff"/>
  <circle cx="910.4" cy="56.0" r="3.2" fill="#8bc3ff"/>
  <circle cx="919.0" cy="366.0" r="3.2" fill="#8bc3ff"/>
  <circle cx="927.5" cy="56.0" r="3.2" fill="#8bc3ff"/>
  <circle cx="936.0" cy="366.0" r="3.2" fill="#8bc3ff"/>

  <line x1="740" y1="78" x2="776" y2="78" stroke="#8bc3ff" stroke-width="3"/>
  <text x="786" y="82" fill="#e7edf5" font-family="Iosevka Web, IBM Plex Sans, Segoe UI, sans-serif" font-size="13">outstanding = sends - receives</text>
</svg>
