<svg xmlns="http://www.w3.org/2000/svg" width="960" height="420" viewBox="0 0 960 420">
  <rect width="100%" height="100%" fill="#0f1115"/>
  <rect x="20" y="20" width="920" height="380" rx="14" fill="#151922" stroke="#2a3140"/>
  <text x="84" y="38" fill="#e7edf5" font-family="Iosevka Web, IBM Plex Sans, Segoe UI, sans-serif" font-size="22">Message Counts By Step</text>
  <text x="84" y="58" fill="#a9b7c8" font-family="Iosevka Web, IBM Plex Sans, Segoe UI, sans-serif" font-size="13">100-step Runtime trace of the M/M/1/5-style queue example.</text>

  <line x1="84" y1="56" x2="84" y2="366" stroke="#a9b7c8" stroke-width="1.5"/>
  <line x1="84" y1="366" x2="936" y2="366" stroke="#a9b7c8" stroke-width="1.5"/>
  <line x1="84" y1="366.0" x2="936" y2="366.0" stroke="#2a3140" stroke-width="1"/>
  <line x1="84" y1="356.0" x2="936" y2="356.0" stroke="#2a3140" stroke-width="1"/>
  <line x1="84" y1="346.0" x2="936" y2="346.0" stroke="#2a3140" stroke-width="1"/>
  <line x1="84" y1="336.0" x2="936" y2="336.0" stroke="#2a3140" stroke-width="1"/>
  <line x1="84" y1="326.0" x2="936" y2="326.0" stroke="#2a3140" stroke-width="1"/>
  <line x1="84" y1="316.0" x2="936" y2="316.0" stroke="#2a3140" stroke-width="1"/>
  <line x1="84" y1="306.0" x2="936" y2="306.0" stroke="#2a3140" stroke-width="1"/>
  <line x1="84" y1="296.0" x2="936" y2="296.0" stroke="#2a3140" stroke-width="1"/>
  <line x1="84" y1="286.0" x2="936" y2="286.0" stroke="#2a3140" stroke-width="1"/>
  <line x1="84" y1="276.0" x2="936" y2="276.0" stroke="#2a3140" stroke-width="1"/>
  <line x1="84" y1="266.0" x2="936" y2="266.0" stroke="#2a3140" stroke-width="1"/>
  <line x1="84" y1="256.0" x2="936" y2="256.0" stroke="#2a3140" stroke-width="1"/>
  <line x1="84" y1="246.0" x2="936" y2="246.0" stroke="#2a3140" stroke-width="1"/>
  <line x1="84" y1="236.0" x2="936" y2="236.0" stroke="#2a3140" stroke-width="1"/>
  <line x1="84" y1="226.0" x2="936" y2="226.0" stroke="#2a3140" stroke-width="1"/>
  <line x1="84" y1="216.0" x2="936" y2="216.0" stroke="#2a3140" stroke-width="1"/>
  <line x1="84" y1="206.0" x2="936" y2="206.0" stroke="#2a3140" stroke-width="1"/>
  <line x1="84" y1="196.0" x2="936" y2="196.0" stroke="#2a3140" stroke-width="1"/>
  <line x1="84" y1="186.0" x2="936" y2="186.0" stroke="#2a3140" stroke-width="1"/>
  <line x1="84" y1="176.0" x2="936" y2="176.0" stroke="#2a3140" stroke-width="1"/>
  <line x1="84" y1="166.0" x2="936" y2="166.0" stroke="#2a3140" stroke-width="1"/>
  <line x1="84" y1="156.0" x2="936" y2="156.0" stroke="#2a3140" stroke-width="1"/>
  <line x1="84" y1="146.0" x2="936" y2="146.0" stroke="#2a3140" stroke-width="1"/>
  <line x1="84" y1="136.0" x2="936" y2="136.0" stroke="#2a3140" stroke-width="1"/>
  <line x1="84" y1="126.0" x2="936" y2="126.0" stroke="#2a3140" stroke-width="1"/>
  <line x1="84" y1="116.0" x2="936" y2="116.0" stroke="#2a3140" stroke-width="1"/>
  <line x1="84" y1="106.0" x2="936" y2="106.0" stroke="#2a3140" stroke-width="1"/>
  <line x1="84" y1="96.0" x2="936" y2="96.0" stroke="#2a3140" stroke-width="1"/>
  <line x1="84" y1="86.0" x2="936" y2="86.0" stroke="#2a3140" stroke-width="1"/>
  <line x1="84" y1="76.0" x2="936" y2="76.0" stroke="#2a3140" stroke-width="1"/>
  <line x1="84" y1="66.0" x2="936" y2="66.0" stroke="#2a3140" stroke-width="1"/>
  <line x1="84" y1="56.0" x2="936" y2="56.0" stroke="#2a3140" stroke-width="1"/>
  <line x1="169.2" y1="56" x2="169.2" y2="366" stroke="#2a3140" stroke-width="1"/>
  <line x1="254.4" y1="56" x2="254.4" y2="366" stroke="#2a3140" stroke-width="1"/>
  <line x1="339.6" y1="56" x2="339.6" y2="366" stroke="#2a3140" stroke-width="1"/>
  <line x1="424.8" y1="56" x2="424.8" y2="366" stroke="#2a3140" stroke-width="1"/>
  <line x1="510.0" y1="56" x2="510.0" y2="366" stroke="#2a3140" stroke-width="1"/>
  <line x1="595.2" y1="56" x2="595.2" y2="366" stroke="#2a3140" stroke-width="1"/>
  <line x1="680.4" y1="56" x2="680.4" y2="366" stroke="#2a3140" stroke-width="1"/>
  <line x1="765.6" y1="56" x2="765.6" y2="366" stroke="#2a3140" stroke-width="1"/>
  <line x1="850.8" y1="56" x2="850.8" y2="366" stroke="#2a3140" stroke-width="1"/>
  <line x1="936.0" y1="56" x2="936.0" y2="366" stroke="#2a3140" stroke-width="1"/>
  <text x="66" y="372.0" text-anchor="end" fill="#a9b7c8" font-family="Iosevka Web, IBM Plex Sans, Segoe UI, sans-serif" font-size="13">0</text>
  <text x="66" y="312.0" text-anchor="end" fill="#a9b7c8" font-family="Iosevka Web, IBM Plex Sans, Segoe UI, sans-serif" font-size="13">6</text>
  <text x="66" y="252.0" text-anchor="end" fill="#a9b7c8" font-family="Iosevka Web, IBM Plex Sans, Segoe UI, sans-serif" font-size="13">12</text>
  <text x="66" y="192.0" text-anchor="end" fill="#a9b7c8" font-family="Iosevka Web, IBM Plex Sans, Segoe UI, sans-serif" font-size="13">18</text>
  <text x="66" y="132.0" text-anchor="end" fill="#a9b7c8" font-family="Iosevka Web, IBM Plex Sans, Segoe UI, sans-serif" font-size="13">24</text>
  <text x="66" y="72.0" text-anchor="end" fill="#a9b7c8" font-family="Iosevka Web, IBM Plex Sans, Segoe UI, sans-serif" font-size="13">30</text>
  <text x="169.2" y="394" text-anchor="middle" fill="#a9b7c8" font-family="Iosevka Web, IBM Plex Sans, Segoe UI, sans-serif" font-size="13">10</text>
  <text x="254.4" y="394" text-anchor="middle" fill="#a9b7c8" font-family="Iosevka Web, IBM Plex Sans, Segoe UI, sans-serif" font-size="13">20</text>
  <text x="339.6" y="394" text-anchor="middle" fill="#a9b7c8" font-family="Iosevka Web, IBM Plex Sans, Segoe UI, sans-serif" font-size="13">30</text>
  <text x="424.8" y="394" text-anchor="middle" fill="#a9b7c8" font-family="Iosevka Web, IBM Plex Sans, Segoe UI, sans-serif" font-size="13">40</text>
  <text x="510.0" y="394" text-anchor="middle" fill="#a9b7c8" font-family="Iosevka Web, IBM Plex Sans, Segoe UI, sans-serif" font-size="13">50</text>
  <text x="595.2" y="394" text-anchor="middle" fill="#a9b7c8" font-family="Iosevka Web, IBM Plex Sans, Segoe UI, sans-serif" font-size="13">60</text>
  <text x="680.4" y="394" text-anchor="middle" fill="#a9b7c8" font-family="Iosevka Web, IBM Plex Sans, Segoe UI, sans-serif" font-size="13">70</text>
  <text x="765.6" y="394" text-anchor="middle" fill="#a9b7c8" font-family="Iosevka Web, IBM Plex Sans, Segoe UI, sans-serif" font-size="13">80</text>
  <text x="850.8" y="394" text-anchor="middle" fill="#a9b7c8" font-family="Iosevka Web, IBM Plex Sans, Segoe UI, sans-serif" font-size="13">90</text>
  <text x="936.0" y="394" text-anchor="middle" fill="#a9b7c8" font-family="Iosevka Web, IBM Plex Sans, Segoe UI, sans-serif" font-size="13">100</text>

  <text x="510.0" y="400" text-anchor="middle" fill="#a9b7c8" font-family="Iosevka Web, IBM Plex Sans, Segoe UI, sans-serif" font-size="13">applied runtime step</text>
  <text x="26" y="211.0" transform="rotate(-90 26 211.0)" text-anchor="middle" fill="#a9b7c8" font-family="Iosevka Web, IBM Plex Sans, Segoe UI, sans-serif" font-size="13">cumulative messages</text>

  <polyline fill="none" stroke="#8bc3ff" stroke-width="3" points="92.5,356.0 126.6,346.0 211.8,336.0 228.8,326.0 245.9,316.0 262.9,306.0 314.0,296.0 331.1,286.0 348.1,276.0 365.2,266.0 416.3,256.0 433.3,246.0 484.4,236.0 501.5,226.0 552.6,216.0 569.6,206.0 586.7,196.0 603.7,186.0 620.8,176.0 637.8,166.0 688.9,156.0 723.0,146.0 757.1,136.0 791.2,126.0 808.2,116.0 825.2,106.0 842.3,96.0 876.4,86.0 893.4,76.0 910.4,66.0 927.5,56.0"/>
  <polyline fill="none" stroke="#79d2a6" stroke-width="3" points="101.0,356.0 135.1,346.0 220.3,336.0 237.4,326.0 254.4,316.0 271.4,306.0 322.6,296.0 339.6,286.0 356.6,276.0 373.7,266.0 424.8,256.0 441.8,246.0 493.0,236.0 510.0,226.0 561.1,216.0 578.2,206.0 595.2,196.0 612.2,186.0 629.3,176.0 646.3,166.0 697.4,156.0 731.5,146.0 765.6,136.0 799.7,126.0 816.7,116.0 833.8,106.0 850.8,96.0 884.9,86.0 901.9,76.0 919.0,66.0 936.0,56.0"/>
  <circle cx="92.5" cy="356.0" r="3.2" fill="#8bc3ff"/>
  <circle cx="126.6" cy="346.0" r="3.2" fill="#8bc3ff"/>
  <circle cx="211.8" cy="336.0" r="3.2" fill="#8bc3ff"/>
  <circle cx="228.8" cy="326.0" r="3.2" fill="#8bc3ff"/>
  <circle cx="245.9" cy="316.0" r="3.2" fill="#8bc3ff"/>
  <circle cx="262.9" cy="306.0" r="3.2" fill="#8bc3ff"/>
  <circle cx="314.0" cy="296.0" r="3.2" fill="#8bc3ff"/>
  <circle cx="331.1" cy="286.0" r="3.2" fill="#8bc3ff"/>
  <circle cx="348.1" cy="276.0" r="3.2" fill="#8bc3ff"/>
  <circle cx="365.2" cy="266.0" r="3.2" fill="#8bc3ff"/>
  <circle cx="416.3" cy="256.0" r="3.2" fill="#8bc3ff"/>
  <circle cx="433.3" cy="246.0" r="3.2" fill="#8bc3ff"/>
  <circle cx="484.4" cy="236.0" r="3.2" fill="#8bc3ff"/>
  <circle cx="501.5" cy="226.0" r="3.2" fill="#8bc3ff"/>
  <circle cx="552.6" cy="216.0" r="3.2" fill="#8bc3ff"/>
  <circle cx="569.6" cy="206.0" r="3.2" fill="#8bc3ff"/>
  <circle cx="586.7" cy="196.0" r="3.2" fill="#8bc3ff"/>
  <circle cx="603.7" cy="186.0" r="3.2" fill="#8bc3ff"/>
  <circle cx="620.8" cy="176.0" r="3.2" fill="#8bc3ff"/>
  <circle cx="637.8" cy="166.0" r="3.2" fill="#8bc3ff"/>
  <circle cx="688.9" cy="156.0" r="3.2" fill="#8bc3ff"/>
  <circle cx="723.0" cy="146.0" r="3.2" fill="#8bc3ff"/>
  <circle cx="757.1" cy="136.0" r="3.2" fill="#8bc3ff"/>
  <circle cx="791.2" cy="126.0" r="3.2" fill="#8bc3ff"/>
  <circle cx="808.2" cy="116.0" r="3.2" fill="#8bc3ff"/>
  <circle cx="825.2" cy="106.0" r="3.2" fill="#8bc3ff"/>
  <circle cx="842.3" cy="96.0" r="3.2" fill="#8bc3ff"/>
  <circle cx="876.4" cy="86.0" r="3.2" fill="#8bc3ff"/>
  <circle cx="893.4" cy="76.0" r="3.2" fill="#8bc3ff"/>
  <circle cx="910.4" cy="66.0" r="3.2" fill="#8bc3ff"/>
  <circle cx="927.5" cy="56.0" r="3.2" fill="#8bc3ff"/>
  <circle cx="101.0" cy="356.0" r="3.2" fill="#79d2a6"/>
  <circle cx="135.1" cy="346.0" r="3.2" fill="#79d2a6"/>
  <circle cx="220.3" cy="336.0" r="3.2" fill="#79d2a6"/>
  <circle cx="237.4" cy="326.0" r="3.2" fill="#79d2a6"/>
  <circle cx="254.4" cy="316.0" r="3.2" fill="#79d2a6"/>
  <circle cx="271.4" cy="306.0" r="3.2" fill="#79d2a6"/>
  <circle cx="322.6" cy="296.0" r="3.2" fill="#79d2a6"/>
  <circle cx="339.6" cy="286.0" r="3.2" fill="#79d2a6"/>
  <circle cx="356.6" cy="276.0" r="3.2" fill="#79d2a6"/>
  <circle cx="373.7" cy="266.0" r="3.2" fill="#79d2a6"/>
  <circle cx="424.8" cy="256.0" r="3.2" fill="#79d2a6"/>
  <circle cx="441.8" cy="246.0" r="3.2" fill="#79d2a6"/>
  <circle cx="493.0" cy="236.0" r="3.2" fill="#79d2a6"/>
  <circle cx="510.0" cy="226.0" r="3.2" fill="#79d2a6"/>
  <circle cx="561.1" cy="216.0" r="3.2" fill="#79d2a6"/>
  <circle cx="578.2" cy="206.0" r="3.2" fill="#79d2a6"/>
  <circle cx="595.2" cy="196.0" r="3.2" fill="#79d2a6"/>
  <circle cx="612.2" cy="186.0" r="3.2" fill="#79d2a6"/>
  <circle cx="629.3" cy="176.0" r="3.2" fill="#79d2a6"/>
  <circle cx="646.3" cy="166.0" r="3.2" fill="#79d2a6"/>
  <circle cx="697.4" cy="156.0" r="3.2" fill="#79d2a6"/>
  <circle cx="731.5" cy="146.0" r="3.2" fill="#79d2a6"/>
  <circle cx="765.6" cy="136.0" r="3.2" fill="#79d2a6"/>
  <circle cx="799.7" cy="126.0" r="3.2" fill="#79d2a6"/>
  <circle cx="816.7" cy="116.0" r="3.2" fill="#79d2a6"/>
  <circle cx="833.8" cy="106.0" r="3.2" fill="#79d2a6"/>
  <circle cx="850.8" cy="96.0" r="3.2" fill="#79d2a6"/>
  <circle cx="884.9" cy="86.0" r="3.2" fill="#79d2a6"/>
  <circle cx="901.9" cy="76.0" r="3.2" fill="#79d2a6"/>
  <circle cx="919.0" cy="66.0" r="3.2" fill="#79d2a6"/>
  <circle cx="936.0" cy="56.0" r="3.2" fill="#79d2a6"/>

  <line x1="740" y1="78" x2="776" y2="78" stroke="#8bc3ff" stroke-width="3"/>
  <text x="786" y="82" fill="#e7edf5" font-family="Iosevka Web, IBM Plex Sans, Segoe UI, sans-serif" font-size="13">sends</text>
  <line x1="740" y1="102" x2="776" y2="102" stroke="#79d2a6" stroke-width="3"/>
  <text x="786" y="106" fill="#e7edf5" font-family="Iosevka Web, IBM Plex Sans, Segoe UI, sans-serif" font-size="13">receives</text>
</svg>
